<svg xmlns="http://www.w3.org/2000/svg" viewBox="0 0 1440 320">
  <path fill="#b3b3b3" fill-opacity="1" d="M0,160L24,176C48,192,96,224,144,234.7C192,245,240,235,288,197.3C336,160,384,96,432,58.7C480,21,528,11,576,26.7C624,43,672,85,720,101.3C768,117,816,107,864,112C912,117,960,139,1008,176C1056,213,1104,267,1152,245.3C1200,224,1248,128,1296,112C1344,96,1392,160,1416,192L1440,224L1440,320L1416,320C1392,320,1344,320,1296,320C1248,320,1200,320,1152,320C1104,320,1056,320,1008,320C960,320,912,320,864,320C816,320,768,320,720,320C672,320,624,320,576,320C528,320,480,320,432,320C384,320,336,320,288,320C240,320,192,320,144,320C96,320,48,320,24,320L0,320Z"></path>
</svg>